# This file uses centimeters as units for non-parametric coordinates.

mtllib LaneLeft.mtl
g default
v -0.250000 -0.250000 0.250000
v -0.250000 -0.250000 -0.250000
v -0.250000 0.250000 0.250000
v -0.250000 0.250000 -0.250000
v 0.250000 0.250000 0.250000
v 0.250000 0.250000 -0.250000
v 0.250000 -0.250000 0.250000
v 0.250000 -0.250000 -0.250000
v 0.250000 -0.250000 1.750000
v -0.250000 -0.250000 1.750000
v -0.250000 0.250000 1.750000
v 0.250000 0.250000 1.750000
v 0.103553 -0.250000 -0.603553
v 0.103553 0.250000 -0.603553
v -0.957107 -0.250000 -1.664214
v -1.310660 -0.250000 -1.310660
v -0.957107 0.250000 -1.664214
v -1.310660 0.250000 -1.310660
vt 0.001992 0.447047
vt 0.118285 0.447047
vt 0.118285 0.330754
vt 0.001992 0.330754
vt 0.371665 0.447047
vt 0.487958 0.447047
vt 0.487958 0.330754
vt 0.371665 0.330754
vt 0.495272 0.447047
vt 0.611565 0.447047
vt 0.611565 0.330754
vt 0.495272 0.330754
vt 0.618056 0.447047
vt 0.734348 0.447047
vt 0.734348 0.330754
vt 0.618056 0.330754
vt 0.001992 0.084060
vt 0.118285 0.084060
vt 0.118285 0.001829
vt 0.001992 0.001829
vt 0.881715 0.799916
vt 0.881715 0.916209
vt 0.998008 0.916209
vt 0.998008 0.799916
vt 0.618056 0.795925
vt 0.734348 0.795925
vt 0.001992 0.795925
vt 0.118285 0.795925
vt 0.371665 0.795925
vt 0.487958 0.795925
vt 0.495272 0.795925
vt 0.611565 0.795925
vt 0.652117 0.248523
vt 0.611565 0.248523
vt 0.495272 0.248523
vt 0.453896 0.248523
vt 0.981043 0.084060
vt 0.898811 0.001829
vt 0.611565 0.001829
vt 0.495272 0.001829
vt 0.207202 0.001829
vt 0.124971 0.084060
vn -1.000000 0.000000 -0.000000
vn -1.000000 0.000000 -0.000000
vn -1.000000 0.000000 -0.000000
vn -1.000000 0.000000 -0.000000
vn 0.000000 1.000000 0.000000
vn 0.000000 1.000000 0.000000
vn 0.000000 1.000000 0.000000
vn 0.000000 1.000000 0.000000
vn 1.000000 0.000000 0.000000
vn 1.000000 0.000000 0.000000
vn 0.985599 0.000000 -0.169102
vn 0.985599 0.000000 -0.169102
vn 0.000000 -1.000000 0.000000
vn 0.000000 -1.000000 0.000000
vn 0.000000 -1.000000 0.000000
vn 0.000000 -1.000000 0.000000
vn -0.707107 0.000000 -0.707107
vn -0.707107 0.000000 -0.707107
vn -0.707107 0.000000 -0.707107
vn -0.707107 0.000000 -0.707107
vn -0.000000 0.000000 1.000000
vn -0.000000 0.000000 1.000000
vn -0.000000 0.000000 1.000000
vn -0.000000 0.000000 1.000000
vn 0.000000 -1.000000 0.000000
vn 0.000000 -1.000000 0.000000
vn -1.000000 0.000000 -0.000000
vn -1.000000 0.000000 -0.000000
vn 0.000000 1.000000 0.000000
vn 0.000000 1.000000 0.000000
vn 1.000000 0.000000 0.000000
vn 1.000000 0.000000 0.000000
vn 0.000000 -1.000000 0.000000
vn 0.760604 0.000000 -0.649216
vn 0.760604 0.000000 -0.649216
vn 0.000000 1.000000 0.000000
vn 0.000000 -1.000000 0.000000
vn 0.000000 -1.000000 0.000000
vn 0.707107 0.000000 -0.707107
vn 0.707107 0.000000 -0.707107
vn 0.000000 1.000000 0.000000
vn 0.000000 1.000000 0.000000
vn -0.707107 0.000000 0.707107
vn -0.707107 0.000000 0.707107
vn -0.707107 0.000000 0.707107
vn -0.707107 0.000000 0.707107
s 1
g pCube3
usemtl blinn1SG
f 1/1/1 3/2/2 2/4/3
f 2/4/3 3/2/2 4/3/4
s 2
f 3/5/5 5/6/6 4/8/7
f 4/8/7 5/6/6 6/7/8
s 3
f 5/9/9 7/10/10 6/12/11
f 6/12/11 7/10/10 8/11/12
s 4
f 7/13/13 1/14/14 8/16/15
f 8/16/15 1/14/14 2/15/16
s 5
f 16/17/17 18/18/18 15/20/19
f 15/20/19 18/18/18 17/19/20
s 6
f 9/21/21 12/22/22 10/24/23
f 10/24/23 12/22/22 11/23/24
s 4
f 7/13/13 9/25/25 1/14/14
f 1/14/14 9/25/25 10/26/26
s 1
f 1/1/1 10/27/27 3/2/2
f 3/2/2 10/27/27 11/28/28
s 2
f 3/5/5 11/29/29 5/6/6
f 5/6/6 11/29/29 12/30/30
s 3
f 5/9/9 12/31/31 7/10/10
f 7/10/10 12/31/31 9/32/32
s 4
f 2/15/16 13/33/33 8/16/15
s 3
f 8/11/12 13/34/34 6/12/11
f 6/12/11 13/34/34 14/35/35
s 2
f 6/7/8 14/36/36 4/8/7
s 4
f 2/15/16 16/37/37 13/33/33
f 13/33/33 16/37/37 15/38/38
s 3
f 13/34/34 15/39/39 14/35/35
f 14/35/35 15/39/39 17/40/40
s 2
f 14/36/36 17/41/41 4/8/7
f 4/8/7 17/41/41 18/42/42
s 7
f 4/3/43 18/18/44 2/4/45
f 2/4/45 18/18/44 16/17/46
g default
v -0.250000 -0.250000 0.250000
v -0.250000 -0.250000 -0.250000
v -0.250000 0.250000 0.250000
v -0.250000 0.250000 -0.250000
v 0.250000 0.250000 0.250000
v 0.250000 0.250000 -0.250000
v 0.250000 -0.250000 0.250000
v 0.250000 -0.250000 -0.250000
v 0.250000 -0.250000 1.750000
v -0.250000 -0.250000 1.750000
v -0.250000 0.250000 1.750000
v 0.250000 0.250000 1.750000
v 0.103553 -0.250000 -0.603553
v 0.103553 0.250000 -0.603553
v -0.957107 -0.250000 -1.664214
v -1.310660 -0.250000 -1.310660
v -0.957107 0.250000 -1.664214
v -1.310660 0.250000 -1.310660
vt 0.001992 0.447047
vt 0.118285 0.447047
vt 0.118285 0.330754
vt 0.001992 0.330754
vt 0.371665 0.447047
vt 0.487958 0.447047
vt 0.487958 0.330754
vt 0.371665 0.330754
vt 0.495272 0.447047
vt 0.611565 0.447047
vt 0.611565 0.330754
vt 0.495272 0.330754
vt 0.618056 0.447047
vt 0.734348 0.447047
vt 0.734348 0.330754
vt 0.618056 0.330754
vt 0.001992 0.084060
vt 0.118285 0.084060
vt 0.118285 0.001829
vt 0.001992 0.001829
vt 0.881715 0.799916
vt 0.881715 0.916209
vt 0.998008 0.916209
vt 0.998008 0.799916
vt 0.618056 0.795925
vt 0.734348 0.795925
vt 0.001992 0.795925
vt 0.118285 0.795925
vt 0.371665 0.795925
vt 0.487958 0.795925
vt 0.495272 0.795925
vt 0.611565 0.795925
vt 0.652117 0.248523
vt 0.611565 0.248523
vt 0.495272 0.248523
vt 0.453896 0.248523
vt 0.981043 0.084060
vt 0.898811 0.001829
vt 0.611565 0.001829
vt 0.495272 0.001829
vt 0.207202 0.001829
vt 0.124971 0.084060
vn -1.000000 0.000000 -0.000000
vn -1.000000 0.000000 -0.000000
vn -1.000000 0.000000 -0.000000
vn -1.000000 0.000000 -0.000000
vn 0.000000 1.000000 0.000000
vn 0.000000 1.000000 0.000000
vn 0.000000 1.000000 0.000000
vn 0.000000 1.000000 0.000000
vn 1.000000 0.000000 0.000000
vn 1.000000 0.000000 0.000000
vn 0.985599 0.000000 -0.169102
vn 0.985599 0.000000 -0.169102
vn 0.000000 -1.000000 0.000000
vn 0.000000 -1.000000 0.000000
vn 0.000000 -1.000000 0.000000
vn 0.000000 -1.000000 0.000000
vn -0.707107 0.000000 -0.707107
vn -0.707107 0.000000 -0.707107
vn -0.707107 0.000000 -0.707107
vn -0.707107 0.000000 -0.707107
vn -0.000000 0.000000 1.000000
vn -0.000000 0.000000 1.000000
vn -0.000000 0.000000 1.000000
vn -0.000000 0.000000 1.000000
vn 0.000000 -1.000000 0.000000
vn 0.000000 -1.000000 0.000000
vn -1.000000 0.000000 -0.000000
vn -1.000000 0.000000 -0.000000
vn 0.000000 1.000000 0.000000
vn 0.000000 1.000000 0.000000
vn 1.000000 0.000000 0.000000
vn 1.000000 0.000000 0.000000
vn 0.000000 -1.000000 0.000000
vn 0.760604 0.000000 -0.649216
vn 0.760604 0.000000 -0.649216
vn 0.000000 1.000000 0.000000
vn 0.000000 -1.000000 0.000000
vn 0.000000 -1.000000 0.000000
vn 0.707107 0.000000 -0.707107
vn 0.707107 0.000000 -0.707107
vn 0.000000 1.000000 0.000000
vn 0.000000 1.000000 0.000000
vn -0.707107 0.000000 0.707107
vn -0.707107 0.000000 0.707107
vn -0.707107 0.000000 0.707107
vn -0.707107 0.000000 0.707107
s 1
g pCube3
f 19/43/47 21/44/48 20/46/49
f 20/46/49 21/44/48 22/45/50
s 2
f 21/47/51 23/48/52 22/50/53
f 22/50/53 23/48/52 24/49/54
s 3
f 23/51/55 25/52/56 24/54/57
f 24/54/57 25/52/56 26/53/58
s 4
f 25/55/59 19/56/60 26/58/61
f 26/58/61 19/56/60 20/57/62
s 5
f 34/59/63 36/60/64 33/62/65
f 33/62/65 36/60/64 35/61/66
s 6
f 27/63/67 30/64/68 28/66/69
f 28/66/69 30/64/68 29/65/70
s 4
f 25/55/59 27/67/71 19/56/60
f 19/56/60 27/67/71 28/68/72
s 1
f 19/43/47 28/69/73 21/44/48
f 21/44/48 28/69/73 29/70/74
s 2
f 21/47/51 29/71/75 23/48/52
f 23/48/52 29/71/75 30/72/76
s 3
f 23/51/55 30/73/77 25/52/56
f 25/52/56 30/73/77 27/74/78
s 4
f 20/57/62 31/75/79 26/58/61
s 3
f 26/53/58 31/76/80 24/54/57
f 24/54/57 31/76/80 32/77/81
s 2
f 24/49/54 32/78/82 22/50/53
s 4
f 20/57/62 34/79/83 31/75/79
f 31/75/79 34/79/83 33/80/84
s 3
f 31/76/80 33/81/85 32/77/81
f 32/77/81 33/81/85 35/82/86
s 2
f 32/78/82 35/83/87 22/50/53
f 22/50/53 35/83/87 36/84/88
s 7
f 22/45/89 36/60/90 20/46/91
f 20/46/91 36/60/90 34/59/92
